<?xml version="1.0" encoding="UTF-8" standalone="no"?>
<svg width="46px" height="46px" viewBox="0 0 46 46" version="1.1" xmlns="http://www.w3.org/2000/svg" xmlns:xlink="http://www.w3.org/1999/xlink">
    <!-- Generator: Sketch 39 (31667) - http://www.bohemiancoding.com/sketch -->
    <title>Logo</title>
    <desc>Created with Sketch.</desc>
    <defs>
        <circle id="path-1" cx="23" cy="23" r="23"></circle>
        <filter x="-50%" y="-50%" width="200%" height="200%" filterUnits="objectBoundingBox" id="filter-3">
            <feOffset dx="0" dy="0" in="SourceAlpha" result="shadowOffsetOuter1"></feOffset>
            <feGaussianBlur stdDeviation="5" in="shadowOffsetOuter1" result="shadowBlurOuter1"></feGaussianBlur>
            <feColorMatrix values="0 0 0 0 0   0 0 0 0 0   0 0 0 0 0  0 0 0 0.177734375 0" type="matrix" in="shadowBlurOuter1" result="shadowMatrixOuter1"></feColorMatrix>
            <feMerge>
                <feMergeNode in="shadowMatrixOuter1"></feMergeNode>
                <feMergeNode in="SourceGraphic"></feMergeNode>
            </feMerge>
        </filter>
        <linearGradient x1="41.9978138%" y1="39.3644555%" x2="59.4248328%" y2="82.7489935%" id="linearGradient-4">
            <stop stop-color="#000000" offset="0%"></stop>
            <stop stop-color="#FFFFFF" stop-opacity="0" offset="100%"></stop>
        </linearGradient>
        <linearGradient x1="0%" y1="100%" x2="75.9481534%" y2="50%" id="linearGradient-5">
            <stop stop-color="#000000" offset="0%"></stop>
            <stop stop-color="#000000" stop-opacity="0" offset="100%"></stop>
        </linearGradient>
    </defs>
    <g id="Page-1" stroke="none" stroke-width="1" fill="none" fill-rule="evenodd">
        <g id="Desktop-HD" transform="translate(-26.000000, -29.000000)">
            <g id="Logo" transform="translate(26.000000, 29.000000)">
                <mask id="mask-2" fill="white">
                    <use xlink:href="#path-1"></use>
                </mask>
                <use id="Oval-1" fill="#242424" xlink:href="#path-1"></use>
                <g id="Group-3" mask="url(#mask-2)">
                    <g transform="translate(-2.000000, -2.000000)">
                        <rect id="Rectangle-1" fill="#4D4D4D" x="0" y="26.5416667" width="49.3324873" height="2.04166667"></rect>
                        <rect id="Rectangle-1-Copy-3" fill="#4D4D4D" x="1.44670051" y="30.625" width="45.8604061" height="2.04166667"></rect>
                        <rect id="Rectangle-1-Copy-5" fill="#4D4D4D" x="1.44670051" y="34.7083333" width="45.8604061" height="2.04166667"></rect>
                        <rect id="Rectangle-1-Copy-7" fill="#4D4D4D" x="1.44670051" y="38.7916667" width="45.8604061" height="2.04166667"></rect>
                        <rect id="Rectangle-1-Copy-9" fill="#4D4D4D" x="1.44670051" y="42.875" width="45.8604061" height="2.04166667"></rect>
                        <rect id="Rectangle-1-Copy-29" fill="#4D4D4D" x="1.44670051" y="46.9583333" width="45.8604061" height="2.04166667"></rect>
                        <rect id="Rectangle-1-Copy-19" fill="#4D4D4D" x="1.44670051" y="6.125" width="45.8604061" height="2.04166667"></rect>
                        <rect id="Rectangle-1-Copy-27" fill="#4D4D4D" x="1.44670051" y="2.04166667" width="45.8604061" height="2.04166667"></rect>
                        <rect id="Rectangle-1-Copy-17" fill="#4D4D4D" x="1.44670051" y="10.2083333" width="45.8604061" height="2.04166667"></rect>
                        <rect id="Rectangle-1-Copy-15" fill="#4D4D4D" x="1.44670051" y="14.2916667" width="45.8604061" height="2.04166667"></rect>
                        <rect id="Rectangle-1-Copy-13" fill="#4D4D4D" x="1.44670051" y="18.375" width="45.8604061" height="2.04166667"></rect>
                        <rect id="Rectangle-1-Copy-11" fill="#4D4D4D" x="0" y="22.4583333" width="49.3324873" height="2.04166667"></rect>
                        <g id="Group-13" stroke-width="1" fill="none" transform="translate(0.000000, 4.000000)">
                            <rect id="Rectangle-1-Copy" fill="#242424" x="0" y="24.5833333" width="49.3324873" height="2.04166667"></rect>
                            <rect id="Rectangle-1-Copy-2" fill="#242424" x="1.44670051" y="28.6666667" width="45.8604061" height="2.04166667"></rect>
                            <rect id="Rectangle-1-Copy-4" fill="#242424" x="1.44670051" y="32.75" width="45.8604061" height="2.04166667"></rect>
                            <rect id="Rectangle-1-Copy-6" fill="#242424" x="1.44670051" y="36.8333333" width="45.8604061" height="2.04166667"></rect>
                            <rect id="Rectangle-1-Copy-8" fill="#242424" x="1.44670051" y="40.9166667" width="45.8604061" height="2.04166667"></rect>
                            <rect id="Rectangle-1-Copy-18" fill="#242424" x="1.44670051" y="4.16666667" width="45.8604061" height="2.04166667"></rect>
                            <rect id="Rectangle-1-Copy-26" fill="#242424" x="1.44670051" y="0.0833333333" width="45.8604061" height="2.04166667"></rect>
                            <rect id="Rectangle-1-Copy-16" fill="#242424" x="1.44670051" y="8.25" width="45.8604061" height="2.04166667"></rect>
                            <rect id="Rectangle-1-Copy-14" fill="#242424" x="1.44670051" y="12.3333333" width="45.8604061" height="2.04166667"></rect>
                            <rect id="Rectangle-1-Copy-12" fill="#242424" x="1.44670051" y="16.4166667" width="45.8604061" height="2.04166667"></rect>
                            <rect id="Rectangle-1-Copy-10" fill="#242424" x="0" y="20.5" width="49.3324873" height="2.04166667"></rect>
                        </g>
                        <g id="Group" filter="url(#filter-3)" stroke-width="1" fill="none" transform="translate(14.227456, 26.615076) rotate(-270.000000) translate(-14.227456, -26.615076) translate(-11.272544, 20.615076)">
                            <rect id="Rectangle-1-Copy-25" fill="#242424" x="1.77635684e-14" y="0" width="50.5621827" height="2.04166667"></rect>
                            <rect id="Rectangle-1-Copy-24" fill="#FFFFFF" x="7.66053887e-16" y="1.89583333" width="50.5621827" height="2.04166667"></rect>
                            <rect id="Rectangle-1-Copy-23" fill="#242424" x="1.27675648e-15" y="3.79166667" width="50.5621827" height="2.04166667"></rect>
                            <rect id="Rectangle-1-Copy-22" fill="#FFFFFF" x="2.04281037e-15" y="5.6875" width="50.5621827" height="2.04166667"></rect>
                            <rect id="Rectangle-1-Copy-21" fill="#242424" x="2.80886425e-15" y="7.58333333" width="50.5621827" height="2.04166667"></rect>
                            <rect id="Rectangle-1-Copy-20" fill="#FFFFFF" x="3.56381591e-15" y="9.47916667" width="50.5621827" height="2.04166667"></rect>
                        </g>
                        <polygon id="Path-1" fill="url(#linearGradient-4)" opacity="0.2" points="8.68020305 8.02083333 23.0025381 56 44.2690355 43.6041667"></polygon>
                        <g id="Group-Copy" stroke-width="1" fill="none" transform="translate(24.781253, 16.714459) rotate(-315.000000) translate(-24.781253, -16.714459) translate(7.281253, 10.714459)">
                            <rect id="Rectangle-1-Copy-25" fill="#242424" x="1.77635684e-15" y="9.54791801e-15" width="34.1326002" height="2.04166667"></rect>
                            <rect id="Rectangle-1-Copy-24" fill="#FFFFFF" x="3.55271368e-15" y="1.89583333" width="34.1326002" height="2.04166667"></rect>
                            <rect id="Rectangle-1-Copy-23" fill="#242424" x="3.55271368e-15" y="3.79166667" width="34.1326002" height="2.04166667"></rect>
                            <rect id="Rectangle-1-Copy-22" fill="#FFFFFF" x="-4.26325641e-14" y="5.6875" width="34.1326002" height="2.04166667"></rect>
                            <rect id="Rectangle-1-Copy-21" fill="#242424" x="-4.61852778e-14" y="7.58333333" width="34.1326002" height="2.04166667"></rect>
                            <rect id="Rectangle-1-Copy-20" fill="#FFFFFF" x="-4.61852778e-14" y="9.47916667" width="34.1326002" height="2.04166667"></rect>
                        </g>
                        <polygon id="Path-2" fill="url(#linearGradient-5)" opacity="0.184468284" points="32.9847716 32.6666667 48.8984772 19.8333333 47.4517766 17.6458333"></polygon>
                        <g id="Group-Copy-2" stroke-width="1" fill="none" transform="translate(40.377695, 16.667304) rotate(-225.000000) translate(-40.377695, -16.667304) translate(22.877695, 10.667304)">
                            <rect id="Rectangle-1-Copy-25" fill="#242424" x="-1.63424829e-13" y="-1.08579812e-13" width="34.1326002" height="2.04166667"></rect>
                            <rect id="Rectangle-1-Copy-24" fill="#FFFFFF" x="-1.42108547e-13" y="1.89583333" width="34.1326002" height="2.04166667"></rect>
                            <rect id="Rectangle-1-Copy-23" fill="#242424" x="-7.10542736e-15" y="3.79166667" width="34.1326002" height="2.04166667"></rect>
                            <rect id="Rectangle-1-Copy-22" fill="#FFFFFF" x="-1.13686838e-13" y="5.6875" width="34.1326002" height="2.04166667"></rect>
                            <rect id="Rectangle-1-Copy-21" fill="#242424" x="-3.55271368e-14" y="7.58333333" width="34.1326002" height="2.04166667"></rect>
                            <rect id="Rectangle-1-Copy-20" fill="#FFFFFF" x="-5.68434189e-14" y="9.47916667" width="34.1326002" height="2.04166667"></rect>
                        </g>
                    </g>
                </g>
            </g>
        </g>
    </g>
</svg>